<svg width="2622" height="452" viewBox="0 0 2622 452" fill="none" xmlns="http://www.w3.org/2000/svg">
<g filter="url(#filter0_d_1705_1941)">
<path fill-rule="evenodd" clip-rule="evenodd" d="M2572 96H50V448H2572V96ZM1271.16 145.162C1271.59 145.58 1271.95 146.061 1272.23 146.587C1272.55 147.13 1272.71 147.747 1272.71 148.374C1272.74 149.11 1272.58 149.842 1272.25 150.499C1271.91 151.156 1271.42 151.717 1270.81 152.13C1269.2 153.137 1267.34 153.659 1265.45 153.633V153.426C1267.5 153.024 1268.52 152.13 1268.52 150.835C1268.52 149.708 1267.19 148.517 1264.53 147.221L1262.85 146.392C1262.57 146.263 1262.04 145.978 1261.28 145.551C1260.7 145.255 1260.15 144.903 1259.64 144.501C1259.32 144.229 1258.92 143.867 1258.45 143.439C1258.04 143.083 1257.71 142.641 1257.49 142.144C1257.32 141.697 1257.23 141.223 1257.23 140.745C1257.22 140.054 1257.38 139.371 1257.7 138.756C1258.01 138.142 1258.48 137.615 1259.05 137.222C1260.5 136.262 1262.21 135.757 1263.95 135.772V135.901C1263.27 135.98 1262.63 136.254 1262.11 136.691C1261.89 136.874 1261.72 137.105 1261.6 137.366C1261.49 137.627 1261.44 137.91 1261.46 138.194C1261.48 139.502 1262.9 140.758 1265.49 141.95C1266.39 142.338 1267.06 142.636 1267.5 142.856C1267.96 143.072 1268.58 143.409 1269.37 143.867C1270.01 144.235 1270.61 144.669 1271.16 145.162ZM1269.3 141.742C1269.82 141.742 1270.32 141.591 1270.74 141.306C1271.17 141.021 1271.5 140.617 1271.7 140.143C1271.9 139.67 1271.95 139.149 1271.85 138.647C1271.75 138.144 1271.5 137.683 1271.14 137.32C1270.77 136.958 1270.31 136.711 1269.81 136.611C1269.31 136.511 1268.78 136.563 1268.31 136.759C1267.84 136.955 1267.43 137.287 1267.15 137.713C1266.86 138.139 1266.71 138.64 1266.71 139.152C1266.71 139.839 1266.98 140.498 1267.47 140.984C1267.96 141.47 1268.61 141.742 1269.3 141.742ZM1259.34 148.278C1259.78 147.999 1260.29 147.856 1260.81 147.869C1261.48 147.869 1262.12 148.135 1262.6 148.609C1263.07 149.082 1263.34 149.725 1263.34 150.395C1263.35 150.912 1263.21 151.422 1262.93 151.858C1262.65 152.293 1262.24 152.635 1261.77 152.84C1261.29 153.044 1260.76 153.1 1260.25 153.002C1259.75 152.905 1259.28 152.657 1258.91 152.29C1258.54 151.924 1258.3 151.457 1258.2 150.948C1258.1 150.44 1258.16 149.914 1258.36 149.438C1258.57 148.962 1258.91 148.558 1259.34 148.278ZM1289.18 146.587C1288.89 146.06 1288.53 145.579 1288.09 145.162C1287.54 144.669 1286.94 144.234 1286.3 143.867C1285.51 143.413 1284.89 143.076 1284.45 142.856C1284.02 142.64 1283.35 142.35 1282.48 141.972L1282.47 141.971L1282.43 141.95C1279.79 140.797 1278.5 139.54 1278.41 138.232C1278.38 137.949 1278.43 137.665 1278.54 137.404C1278.65 137.142 1278.82 136.911 1279.04 136.73C1279.57 136.295 1280.21 136.02 1280.88 135.94V135.771C1279.16 135.763 1277.47 136.268 1276.03 137.222C1275.45 137.608 1274.98 138.132 1274.65 138.747C1274.33 139.362 1274.16 140.049 1274.17 140.745C1274.17 141.223 1274.25 141.697 1274.42 142.144C1274.65 142.641 1274.98 143.083 1275.4 143.439L1275.64 143.658C1276 143.991 1276.31 144.277 1276.58 144.501C1277.09 144.897 1277.64 145.248 1278.21 145.55L1278.21 145.552C1278.99 145.978 1279.51 146.263 1279.78 146.392L1281.47 147.221C1284.12 148.516 1285.46 149.708 1285.46 150.835C1285.46 152.13 1284.44 153.024 1282.4 153.425V153.633C1284.29 153.657 1286.15 153.136 1287.76 152.13C1288.37 151.717 1288.86 151.156 1289.2 150.499C1289.53 149.841 1289.69 149.11 1289.66 148.374C1289.66 147.746 1289.5 147.13 1289.18 146.587ZM1287.74 141.338C1287.3 141.614 1286.79 141.755 1286.28 141.742C1285.6 141.725 1284.96 141.445 1284.49 140.961C1284.01 140.477 1283.75 139.828 1283.75 139.152C1283.75 138.637 1283.9 138.134 1284.19 137.706C1284.48 137.279 1284.89 136.947 1285.37 136.753C1285.84 136.559 1286.37 136.512 1286.87 136.617C1287.38 136.722 1287.84 136.976 1288.2 137.344C1288.56 137.713 1288.8 138.181 1288.89 138.687C1288.99 139.194 1288.93 139.717 1288.72 140.189C1288.51 140.661 1288.17 141.061 1287.74 141.338ZM1277.75 147.869C1277.23 147.869 1276.73 148.023 1276.3 148.31C1275.87 148.598 1275.54 149.006 1275.34 149.484C1275.15 149.961 1275.1 150.485 1275.21 150.989C1275.31 151.493 1275.57 151.955 1275.94 152.314C1276.3 152.674 1276.77 152.915 1277.28 153.008C1277.79 153.1 1278.31 153.04 1278.78 152.834C1279.26 152.628 1279.66 152.285 1279.93 151.851C1280.21 151.417 1280.35 150.91 1280.34 150.395C1280.32 149.719 1280.04 149.076 1279.56 148.605C1279.07 148.133 1278.42 147.869 1277.75 147.869ZM1355.03 151.595C1355.73 151.948 1356.5 152.132 1357.27 152.13C1359.11 152.112 1360.89 151.468 1362.31 150.304V150.511C1361.45 151.586 1360.3 152.399 1359 152.856C1357.72 153.337 1356.37 153.592 1355.01 153.607C1352.65 153.597 1350.39 152.726 1348.64 151.159C1347.72 150.338 1346.99 149.323 1346.51 148.187C1346.03 147.052 1345.8 145.824 1345.85 144.592C1345.81 142.888 1346.29 141.212 1347.22 139.787C1348.02 138.538 1349.13 137.514 1350.43 136.811C1351.74 136.109 1353.2 135.751 1354.68 135.771V135.94C1354.14 135.993 1353.64 136.212 1353.23 136.567C1352.82 136.923 1352.54 137.396 1352.41 137.921C1351.84 140.052 1351.6 142.258 1351.7 144.462C1351.58 146.464 1352.14 148.448 1353.28 150.097C1353.74 150.728 1354.34 151.241 1355.03 151.595ZM1359.06 141.742C1359.58 141.755 1360.09 141.614 1360.52 141.338C1360.96 141.061 1361.3 140.661 1361.51 140.189C1361.71 139.717 1361.77 139.194 1361.68 138.687C1361.59 138.181 1361.35 137.713 1360.99 137.344C1360.63 136.976 1360.16 136.722 1359.66 136.617C1359.16 136.512 1358.63 136.559 1358.15 136.753C1357.68 136.947 1357.27 137.279 1356.98 137.706C1356.69 138.134 1356.54 138.637 1356.54 139.152C1356.54 139.828 1356.8 140.477 1357.27 140.961C1357.75 141.445 1358.39 141.726 1359.06 141.742ZM1338.59 148.955C1338.3 149.381 1338.15 149.882 1338.15 150.395C1338.14 150.737 1338.2 151.078 1338.33 151.396C1338.45 151.715 1338.65 152.004 1338.89 152.246C1339.13 152.489 1339.42 152.679 1339.74 152.806C1340.06 152.933 1340.4 152.994 1340.74 152.985C1341.25 152.985 1341.76 152.833 1342.18 152.549C1342.61 152.264 1342.94 151.859 1343.14 151.386C1343.33 150.913 1343.39 150.392 1343.29 149.889C1343.19 149.387 1342.94 148.925 1342.58 148.563C1342.21 148.201 1341.75 147.954 1341.25 147.854C1340.74 147.754 1340.22 147.805 1339.75 148.001C1339.28 148.197 1338.87 148.529 1338.59 148.955ZM1332.43 136.069V136.277C1332.91 136.249 1333.39 136.324 1333.83 136.496C1334.28 136.668 1334.69 136.933 1335.02 137.274C1335.64 137.993 1335.96 138.918 1335.93 139.864C1335.86 141.469 1335.48 143.046 1334.83 144.514L1334.53 145.097C1334.44 145.265 1334.33 145.469 1334.21 145.687C1333.91 146.24 1333.56 146.886 1333.34 147.286L1329.07 138.362C1328.93 138.148 1328.84 137.901 1328.82 137.645C1328.8 137.389 1328.85 137.132 1328.95 136.898C1329.09 136.701 1329.27 136.544 1329.48 136.443C1329.7 136.343 1329.94 136.303 1330.17 136.328V136.069H1320.49V136.277C1320.89 136.261 1321.28 136.368 1321.62 136.583C1321.96 136.799 1322.22 137.112 1322.38 137.481L1329.58 151.729C1329.9 152.264 1330.04 152.886 1330 153.508C1329.95 154.13 1329.7 154.721 1329.3 155.2L1328.99 155.653C1328.97 155.701 1328.94 155.748 1328.91 155.795C1328.9 155.817 1328.89 155.838 1328.87 155.859C1328.84 155.903 1328.82 155.947 1328.79 155.99L1329.02 156.184L1329.37 155.589L1330.58 153.309L1331.46 151.651L1333.52 147.765L1335.41 144.268L1338.76 137.973C1338.98 137.478 1339.31 137.037 1339.72 136.678C1340.1 136.433 1340.56 136.319 1341.01 136.354V136.069H1332.43ZM1322.93 157.377C1323.36 157.089 1323.86 156.936 1324.38 156.936C1325.05 156.935 1325.7 157.199 1326.19 157.671C1326.67 158.143 1326.95 158.786 1326.97 159.461C1326.98 159.976 1326.84 160.483 1326.56 160.918C1326.29 161.352 1325.89 161.694 1325.41 161.9C1324.94 162.106 1324.42 162.167 1323.91 162.074C1323.4 161.982 1322.94 161.74 1322.57 161.381C1322.2 161.021 1321.94 160.56 1321.84 160.056C1321.73 159.552 1321.78 159.027 1321.97 158.55C1322.17 158.073 1322.5 157.665 1322.93 157.377ZM1384.83 151.224C1384.3 152.234 1383.73 152.726 1383.24 152.726C1382.74 152.726 1382.24 152.325 1382.24 151.314V143.271V140.68C1382.24 137.093 1379.93 135.499 1377.05 135.499C1375.82 135.485 1374.6 135.829 1373.56 136.492C1372.52 137.154 1371.69 138.106 1371.18 139.23V129.295C1371.17 129.104 1371.22 128.916 1371.32 128.751C1371.45 128.554 1371.63 128.396 1371.85 128.296C1372.06 128.195 1372.3 128.156 1372.54 128.181V128H1363.56V128.207C1364.43 128.207 1365.46 128.803 1365.46 129.412V151.314C1365.46 152.48 1364.6 153.063 1362.86 153.063V153.27H1373.71V153.063C1371.99 153.063 1371.11 152.48 1371.11 151.314V141.742C1371.11 139.333 1372.72 137.585 1374.37 137.585C1375.66 137.585 1376.58 138.738 1376.77 140.667V150.162C1376.77 152.998 1377.97 153.931 1380.66 153.931C1381.58 154.025 1382.51 153.81 1383.29 153.32C1384.08 152.83 1384.68 152.092 1385 151.224H1384.83ZM1297.29 141.338C1296.86 141.614 1296.35 141.755 1295.83 141.742C1295.16 141.726 1294.51 141.445 1294.04 140.961C1293.57 140.477 1293.31 139.828 1293.31 139.152C1293.31 138.637 1293.46 138.134 1293.75 137.706C1294.04 137.279 1294.44 136.947 1294.92 136.753C1295.4 136.559 1295.92 136.512 1296.43 136.617C1296.93 136.722 1297.4 136.976 1297.76 137.344C1298.12 137.713 1298.36 138.181 1298.45 138.687C1298.54 139.194 1298.48 139.717 1298.28 140.189C1298.07 140.661 1297.73 141.061 1297.29 141.338ZM1310.71 151.094C1310.15 152.143 1309.55 152.674 1309.04 152.674C1308.52 152.674 1308.05 152.247 1308.05 151.237V142.753C1308.05 138.181 1305.73 135.992 1299.94 135.771V135.992C1301.66 136.225 1302.32 137.598 1302.32 139.307V144.488H1298.75C1297.06 144.419 1295.39 144.871 1293.97 145.784C1293.4 146.157 1292.94 146.665 1292.62 147.262C1292.3 147.859 1292.13 148.526 1292.14 149.203C1292.1 149.801 1292.2 150.4 1292.42 150.956C1292.65 151.511 1292.99 152.01 1293.44 152.415C1294.43 153.252 1295.7 153.678 1297 153.607C1298.04 153.583 1299.06 153.33 1299.99 152.866C1300.91 152.403 1301.73 151.74 1302.37 150.926C1302.63 153.179 1303.89 153.957 1306.38 153.957C1307.35 154.056 1308.32 153.828 1309.14 153.309C1309.96 152.79 1310.59 152.01 1310.92 151.094H1310.71ZM1299.96 151.794C1298.51 151.794 1297.79 150.68 1297.79 148.465C1297.74 147.462 1298.08 146.478 1298.74 145.719C1299.09 145.369 1299.51 145.098 1299.98 144.924C1300.44 144.75 1300.94 144.676 1301.44 144.709H1302.32V150.019C1302.3 150.256 1302.3 150.494 1302.32 150.731C1301.68 151.354 1300.85 151.731 1299.96 151.794ZM1242.15 141.338C1241.72 141.614 1241.21 141.755 1240.7 141.742C1240.02 141.725 1239.38 141.445 1238.9 140.961C1238.43 140.477 1238.17 139.828 1238.17 139.152C1238.17 138.637 1238.32 138.134 1238.61 137.706C1238.9 137.279 1239.31 136.947 1239.78 136.753C1240.26 136.559 1240.79 136.512 1241.29 136.617C1241.8 136.722 1242.26 136.976 1242.62 137.344C1242.98 137.713 1243.22 138.181 1243.31 138.687C1243.4 139.194 1243.34 139.717 1243.14 140.189C1242.93 140.661 1242.59 141.061 1242.15 141.338ZM1255.57 151.094C1255.01 152.143 1254.42 152.674 1253.88 152.674C1253.35 152.674 1252.91 152.247 1252.91 151.237V142.753C1252.91 138.181 1250.6 135.992 1244.78 135.771V135.992C1246.49 136.225 1247.15 137.598 1247.15 139.307V144.488H1243.61C1241.92 144.419 1240.25 144.871 1238.83 145.784C1238.27 146.154 1237.81 146.658 1237.49 147.25C1237.17 147.843 1237 148.505 1237 149.177C1236.95 149.776 1237.05 150.378 1237.27 150.936C1237.5 151.493 1237.85 151.991 1238.3 152.389C1239.28 153.226 1240.56 153.653 1241.85 153.581C1242.89 153.559 1243.91 153.307 1244.84 152.843C1245.77 152.38 1246.59 151.716 1247.23 150.9C1247.48 153.154 1248.75 153.905 1251.26 153.905C1252.23 154.004 1253.2 153.779 1254.02 153.265C1254.84 152.751 1255.47 151.978 1255.8 151.068L1255.57 151.094ZM1244.78 151.794C1243.33 151.794 1242.6 150.68 1242.6 148.465C1242.55 147.462 1242.89 146.478 1243.55 145.719C1243.9 145.37 1244.33 145.1 1244.8 144.926C1245.26 144.752 1245.76 144.678 1246.26 144.709H1247.14V150.019V150.731C1246.51 151.356 1245.67 151.733 1244.78 151.794ZM1318.7 151.314V129.295C1318.7 129.112 1318.76 128.934 1318.85 128.777C1318.98 128.58 1319.17 128.422 1319.38 128.322C1319.6 128.221 1319.84 128.182 1320.07 128.207V128H1311.14V128.155C1312.02 128.155 1313.03 128.751 1313.03 129.36V150.084C1313.03 152.998 1314.27 153.97 1317.02 153.97C1317.97 154.065 1318.92 153.844 1319.73 153.34C1320.54 152.836 1321.16 152.077 1321.48 151.185H1321.28C1320.72 152.221 1320.25 152.726 1319.63 152.726C1319.01 152.726 1318.7 152.299 1318.7 151.314Z" fill="white"/>
</g>
<defs>
<filter id="filter0_d_1705_1941" x="0" y="0" width="2622" height="452" filterUnits="userSpaceOnUse" color-interpolation-filters="sRGB">
<feFlood flood-opacity="0" result="BackgroundImageFix"/>
<feColorMatrix in="SourceAlpha" type="matrix" values="0 0 0 0 0 0 0 0 0 0 0 0 0 0 0 0 0 0 127 0" result="hardAlpha"/>
<feOffset dy="-46"/>
<feGaussianBlur stdDeviation="25"/>
<feComposite in2="hardAlpha" operator="out"/>
<feColorMatrix type="matrix" values="0 0 0 0 0 0 0 0 0 0 0 0 0 0 0 0 0 0 0.08 0"/>
<feBlend mode="normal" in2="BackgroundImageFix" result="effect1_dropShadow_1705_1941"/>
<feBlend mode="normal" in="SourceGraphic" in2="effect1_dropShadow_1705_1941" result="shape"/>
</filter>
</defs>
</svg>
