<svg width="148" height="35" viewBox="0 0 148 35" fill="none" xmlns="http://www.w3.org/2000/svg">
<g clip-path="url(#clip0_1181_1089)">
<path d="M35.2332 18.6133C34.948 18.0863 34.5852 17.6053 34.1568 17.1865C33.6075 16.6925 33.0076 16.2577 32.3673 15.8894C31.5806 15.4311 30.9581 15.0938 30.5 14.8776C30.0591 14.6571 29.3847 14.3588 28.49 13.9697C25.8964 12.7763 24.483 11.5182 24.457 10.2081C24.4407 9.92414 24.4908 9.64028 24.6033 9.37909C24.7159 9.1179 24.8878 8.88656 25.1054 8.70346C25.629 8.26589 26.269 7.99088 26.9468 7.91224V7.78253C25.2048 7.76807 23.498 8.2739 22.045 9.23527C21.4753 9.6283 21.0115 10.156 20.6948 10.7715C20.3781 11.387 20.2183 12.0712 20.2296 12.7634C20.2314 13.2421 20.3193 13.7166 20.4889 14.1642C20.7098 14.6618 21.0374 15.1046 21.4485 15.4613C21.9154 15.8894 22.3174 16.2525 22.6415 16.5249C23.1509 16.9272 23.6981 17.2791 24.2755 17.5756C25.0406 18.0036 25.5722 18.289 25.8446 18.4187L27.5304 19.2488C30.1887 20.5459 31.5244 21.7392 31.5244 22.8677C31.5244 24.1648 30.5 25.0598 28.4511 25.4619V25.6694C30.3441 25.6957 32.2042 25.1731 33.8067 24.1648C34.4176 23.7513 34.9131 23.189 35.2466 22.5309C35.5801 21.8728 35.7406 21.1405 35.713 20.4032C35.7129 19.7748 35.5474 19.1575 35.2332 18.6133Z" fill="white"/>
<path d="M32.302 13.7621C32.815 13.7621 33.3164 13.61 33.7429 13.3249C34.1694 13.0399 34.5018 12.6347 34.6981 12.1607C34.8944 11.6866 34.9458 11.165 34.8457 10.6618C34.7457 10.1586 34.4986 9.69635 34.1359 9.33355C33.7732 8.97075 33.3111 8.72368 32.808 8.62358C32.3049 8.52348 31.7834 8.57485 31.3095 8.7712C30.8356 8.96755 30.4306 9.30005 30.1456 9.72667C29.8606 10.1533 29.7085 10.6548 29.7085 11.1679C29.7085 11.8559 29.9817 12.5158 30.4681 13.0023C30.9545 13.4888 31.6142 13.7621 32.302 13.7621Z" fill="white"/>
<path d="M23.8085 19.8975C23.2902 19.8847 22.78 20.0276 22.3437 20.3076C21.9074 20.5877 21.565 20.9921 21.3607 21.4686C21.1565 21.9452 21.0996 22.4721 21.1976 22.9813C21.2956 23.4905 21.5439 23.9586 21.9105 24.3253C22.2771 24.6919 22.7451 24.9403 23.2542 25.0383C23.7632 25.1364 24.29 25.0795 24.7664 24.8752C25.2429 24.6709 25.6472 24.3284 25.9272 23.892C26.2072 23.4556 26.35 22.9452 26.3372 22.4269C26.3372 21.756 26.0707 21.1127 25.5965 20.6383C25.1223 20.164 24.4791 19.8975 23.8085 19.8975Z" fill="white"/>
<path d="M52.1818 18.6133C51.8924 18.0857 51.5252 17.6047 51.0925 17.1865C50.5431 16.6926 49.9433 16.2578 49.303 15.8894C48.5119 15.4354 47.8895 15.0982 47.4486 14.8777C47.0077 14.6572 46.3204 14.3588 45.4256 13.9697C42.7932 12.8153 41.4964 11.5571 41.4057 10.2471C41.3836 9.96372 41.4297 9.6792 41.5403 9.4174C41.6509 9.15559 41.8226 8.92413 42.0411 8.74243C42.5659 8.30679 43.2053 8.03203 43.8825 7.95121V7.78258C42.1574 7.77374 40.4689 8.27953 39.0326 9.23533C38.4525 9.6216 37.9779 10.1465 37.6518 10.7626C37.3257 11.3787 37.1585 12.0664 37.1652 12.7634C37.1671 13.2421 37.2549 13.7166 37.4246 14.1643C37.6507 14.6622 37.9826 15.1049 38.3972 15.4614C38.864 15.8894 39.253 16.2526 39.5772 16.525C40.0909 16.9212 40.6375 17.2727 41.2111 17.5756C41.9892 18.0037 42.5079 18.289 42.7802 18.4187L44.466 19.2489C47.1244 20.546 48.4601 21.7393 48.4601 22.8678C48.4601 24.1649 47.4356 25.0599 45.3997 25.462V25.6695C47.2925 25.6942 49.1522 25.1718 50.7554 24.1649C51.3662 23.7513 51.8618 23.189 52.1953 22.5309C52.5288 21.8728 52.6893 21.1406 52.6616 20.4033C52.6615 19.7749 52.496 19.1575 52.1818 18.6133Z" fill="white"/>
<path d="M49.2767 13.7623C49.7923 13.7752 50.2999 13.634 50.7349 13.3569C51.1698 13.0798 51.5123 12.6793 51.7186 12.2066C51.9249 11.7339 51.9856 11.2103 51.8929 10.7029C51.8003 10.1955 51.5586 9.72721 51.1986 9.35789C50.8386 8.98857 50.3767 8.73498 49.8719 8.62952C49.3671 8.52405 48.8423 8.57149 48.3646 8.76579C47.8869 8.96009 47.478 9.29242 47.19 9.72032C46.9021 10.1482 46.7482 10.6523 46.748 11.1681C46.7478 11.845 47.0122 12.4952 47.4846 12.9799C47.9571 13.4646 48.6002 13.7453 49.2767 13.7623Z" fill="white"/>
<path d="M40.7441 19.8975C40.2284 19.8976 39.7245 20.0515 39.2967 20.3396C38.8689 20.6276 38.5367 21.0366 38.3424 21.5145C38.1482 21.9923 38.1007 22.5172 38.2062 23.0221C38.3116 23.527 38.5651 23.989 38.9344 24.3491C39.3036 24.7092 39.7717 24.951 40.279 25.0436C40.7863 25.1363 41.3097 25.0756 41.7823 24.8692C42.255 24.6629 42.6554 24.3203 42.9324 23.8853C43.2094 23.4502 43.3505 22.9424 43.3376 22.4268C43.3207 21.7501 43.04 21.1068 42.5555 20.6342C42.0709 20.1616 41.4209 19.8972 40.7441 19.8975Z" fill="white"/>
<path d="M120.275 24.1649C119.495 24.1666 118.727 23.9828 118.032 23.6287C117.338 23.2746 116.737 22.7604 116.281 22.1284C115.137 20.4777 114.58 18.4909 114.699 16.4861C114.6 14.279 114.84 12.0697 115.412 9.93576C115.536 9.4097 115.822 8.93565 116.229 8.57985C116.636 8.22405 117.144 8.00426 117.681 7.9512V7.78258C116.199 7.76193 114.736 8.12048 113.431 8.8242C112.126 9.52792 111.022 10.5535 110.225 11.8036C109.29 13.2315 108.811 14.9095 108.85 16.6158C108.801 17.8498 109.025 19.0795 109.508 20.2165C109.99 21.3535 110.717 22.3697 111.638 23.1921C113.389 24.7618 115.655 25.6341 118.006 25.6436C119.371 25.6284 120.723 25.3737 122 24.8912C123.3 24.4336 124.445 23.6201 125.306 22.5435V22.336C123.887 23.5017 122.112 24.147 120.275 24.1649Z" fill="white"/>
<path d="M122.064 13.7623C122.58 13.7752 123.088 13.634 123.522 13.3569C123.957 13.0798 124.3 12.6793 124.506 12.2066C124.712 11.7339 124.773 11.2103 124.681 10.7029C124.588 10.1955 124.346 9.72721 123.986 9.35789C123.626 8.98857 123.164 8.73498 122.659 8.62952C122.155 8.52405 121.63 8.57149 121.152 8.76579C120.675 8.96009 120.266 9.29242 119.978 9.72032C119.69 10.1482 119.536 10.6523 119.536 11.1681C119.535 11.845 119.8 12.4952 120.272 12.9799C120.745 13.4646 121.388 13.7453 122.064 13.7623Z" fill="white"/>
<path d="M101.148 22.4267C101.148 21.9136 101.3 21.4121 101.585 20.9855C101.87 20.5588 102.275 20.2263 102.749 20.03C103.223 19.8336 103.744 19.7823 104.247 19.8824C104.75 19.9825 105.213 20.2295 105.575 20.5923C105.938 20.9551 106.185 21.4174 106.285 21.9206C106.385 22.4238 106.334 22.9454 106.137 23.4195C105.941 23.8935 105.609 24.2986 105.182 24.5837C104.756 24.8687 104.254 25.0209 103.741 25.0209C103.398 25.0298 103.057 24.9688 102.738 24.8416C102.42 24.7144 102.13 24.5236 101.888 24.2809C101.645 24.0382 101.454 23.7487 101.327 23.4299C101.2 23.1111 101.139 22.7698 101.148 22.4267Z" fill="white"/>
<path d="M95.429 8.08081V8.28835C95.9075 8.2609 96.3863 8.33578 96.8335 8.50801C97.2807 8.68023 97.6861 8.94583 98.0226 9.28711C98.6392 10.0076 98.9632 10.9334 98.9303 11.8813C98.8548 13.4884 98.481 15.0675 97.8281 16.5379L97.5298 17.1215C97.2056 17.7182 96.648 18.7559 96.3368 19.3136L92.0704 10.3767C91.9284 10.1623 91.8432 9.91528 91.8228 9.65889C91.8024 9.4025 91.8474 9.14514 91.9537 8.91095C92.0852 8.71336 92.2685 8.55566 92.4834 8.45503C92.6983 8.35439 92.9367 8.31468 93.1727 8.34023V8.08081H83.4858V8.28835C83.8866 8.27285 84.2826 8.38003 84.6209 8.59558C84.9592 8.81112 85.2237 9.12477 85.3791 9.49464L92.5762 23.7627C92.8972 24.2987 93.0435 24.9213 92.9947 25.5442C92.9459 26.1672 92.7044 26.7594 92.3038 27.2389L91.9926 27.6929C91.9294 27.8088 91.8601 27.9214 91.7851 28.0301L92.0186 28.2247L92.3687 27.628L93.5747 25.3451L94.4565 23.6848L96.5183 19.7936L98.4116 16.2914L101.757 9.98754C101.981 9.49166 102.308 9.04939 102.717 8.69044C103.103 8.44489 103.558 8.33111 104.014 8.36617V8.08081H95.429Z" fill="white"/>
<path d="M87.3759 28.9771C86.8602 28.9772 86.3563 29.1311 85.9285 29.4192C85.5007 29.7072 85.1685 30.1162 84.9742 30.594C84.78 31.0719 84.7326 31.5968 84.838 32.1017C84.9434 32.6066 85.197 33.0686 85.5662 33.4287C85.9354 33.7888 86.4036 34.0306 86.9109 34.1232C87.4182 34.2159 87.9415 34.1552 88.4142 33.9488C88.8868 33.7425 89.2872 33.3999 89.5642 32.9649C89.8413 32.5298 89.9823 32.022 89.9694 31.5064C89.9525 30.8297 89.6718 30.1864 89.1873 29.7138C88.7027 29.2412 88.0527 28.9768 87.3759 28.9771Z" fill="white"/>
<path d="M147.831 23.2569C147.299 24.2686 146.729 24.7615 146.236 24.7615C145.743 24.7615 145.237 24.3594 145.237 23.3477V15.2927V12.6985C145.237 9.10559 142.929 7.51017 140.05 7.51017C138.814 7.49528 137.601 7.84057 136.558 8.50392C135.515 9.16727 134.687 10.12 134.176 11.2458V1.29709C134.174 1.10598 134.223 0.917789 134.319 0.752314C134.45 0.554724 134.633 0.397023 134.848 0.296389C135.063 0.195756 135.302 0.156048 135.538 0.181593V0H126.564V0.207535C127.433 0.207535 128.457 0.804198 128.457 1.41383V23.3477C128.457 24.5151 127.601 25.0988 125.864 25.0988V25.3063H136.705V25.0988C134.993 25.0988 134.111 24.5151 134.111 23.3477V13.7622C134.111 11.3496 135.719 9.59849 137.366 9.59849C138.663 9.59849 139.584 10.7529 139.765 12.6856V22.1933C139.765 25.0339 140.971 25.9678 143.655 25.9678C144.578 26.0624 145.505 25.8474 146.292 25.3565C147.078 24.8657 147.679 24.127 148 23.2569H147.831Z" fill="white"/>
<path d="M58.8344 13.7623C59.3499 13.7752 59.8575 13.634 60.2925 13.3569C60.7274 13.0798 61.0699 12.6793 61.2762 12.2066C61.4825 11.7339 61.5432 11.2103 61.4505 10.7029C61.3579 10.1955 61.1162 9.72721 60.7562 9.35789C60.3962 8.98857 59.9343 8.73498 59.4295 8.62952C58.9247 8.52405 58.4 8.57149 57.9223 8.76579C57.4446 8.96009 57.0356 9.29242 56.7477 9.72032C56.4597 10.1482 56.3058 10.6523 56.3057 11.1681C56.3055 11.845 56.5698 12.4952 57.0422 12.9799C57.5147 13.4646 58.1578 13.7453 58.8344 13.7623Z" fill="white"/>
<path d="M73.7081 23.1271C73.1505 24.1777 72.554 24.7095 72.0353 24.7095C71.5166 24.7095 71.0497 24.2815 71.0497 23.2698V14.7738C71.0497 10.1951 68.7285 8.00298 62.9449 7.78247V8.00298C64.6567 8.23645 65.318 9.61137 65.318 11.3235V16.5119H61.7519C60.0615 16.4423 58.3908 16.8952 56.9668 17.809C56.4012 18.1825 55.9378 18.6913 55.6185 19.2892C55.2992 19.8872 55.1342 20.5554 55.1384 21.2333C55.1018 21.8322 55.1992 22.4318 55.4235 22.9882C55.6478 23.5447 55.9934 24.0441 56.4352 24.4501C57.4283 25.288 58.7039 25.7149 60.0013 25.6434C61.0386 25.6192 62.0578 25.366 62.9859 24.9018C63.914 24.4376 64.7281 23.774 65.3699 22.9585C65.6292 25.2154 66.8871 25.9937 69.3769 25.9937C70.3451 26.0935 71.3188 25.8652 72.1418 25.3454C72.9648 24.8256 73.5895 24.0444 73.9156 23.1271H73.7081ZM62.9579 23.8275C61.5055 23.8275 60.7923 22.712 60.7923 20.494C60.7407 19.4894 61.0799 18.5039 61.7389 17.7441C62.0911 17.3938 62.5137 17.1224 62.9787 16.948C63.4438 16.7735 63.9406 16.7 64.4362 16.7324H65.318V22.0505C65.304 22.2881 65.304 22.5263 65.318 22.7639C64.6826 23.3876 63.8459 23.7646 62.9579 23.8275Z" fill="white"/>
<path d="M3.69569 13.7623C4.21121 13.7752 4.71887 13.634 5.15381 13.3569C5.58876 13.0798 5.93125 12.6793 6.13753 12.2066C6.3438 11.7339 6.40451 11.2103 6.31188 10.7029C6.21925 10.1955 5.97749 9.72721 5.6175 9.35789C5.2575 8.98857 4.79561 8.73498 4.29082 8.62952C3.78604 8.52405 3.26128 8.57149 2.78358 8.76579C2.30589 8.96009 1.89694 9.29242 1.60899 9.72032C1.32104 10.1482 1.16715 10.6523 1.16699 11.1681C1.16678 11.845 1.43111 12.4952 1.90356 12.9799C2.376 13.4646 3.01914 13.7453 3.69569 13.7623Z" fill="white"/>
<path d="M18.5695 23.1271C18.0119 24.1777 17.4154 24.7095 16.8837 24.7095C16.352 24.7095 15.9111 24.2815 15.9111 23.2698V14.7738C15.9111 10.1951 13.6029 8.00298 7.78042 7.78247V8.00298C9.49215 8.23645 10.1535 9.61137 10.1535 11.3235V16.5119H6.61333C4.92296 16.4423 3.2522 16.8952 1.82826 17.809C1.26633 18.1801 0.805176 18.6847 0.486081 19.2778C0.166985 19.8709 -8.94777e-05 20.5339 -0.000183599 21.2074C-0.0474507 21.8074 0.0450575 22.4101 0.270068 22.9683C0.495079 23.5265 0.846458 24.0248 1.29658 24.4242C2.28445 25.2625 3.55626 25.6896 4.84972 25.6175C5.8893 25.5952 6.91102 25.3428 7.8415 24.8786C8.77198 24.4144 9.58813 23.7497 10.2313 22.9325C10.4777 25.1895 11.7485 25.9418 14.2643 25.9418C15.2289 26.041 16.1991 25.8155 17.0212 25.301C17.8433 24.7865 18.4703 24.0123 18.8029 23.1011L18.5695 23.1271ZM7.78042 23.8275C6.32804 23.8275 5.60185 22.712 5.60185 20.494C5.55022 19.4894 5.88948 18.5039 6.54849 17.7441C6.90404 17.3948 7.32908 17.1242 7.79601 16.9499C8.26294 16.7756 8.7613 16.7015 9.25873 16.7324H10.1405V22.0505V22.7639C9.50641 23.3895 8.66902 23.7669 7.78042 23.8275Z" fill="white"/>
<path d="M81.6959 1.29709V23.3477C81.6959 24.3335 82.0071 24.7615 82.6296 24.7615C83.252 24.7615 83.7189 24.2556 84.2765 23.218H84.4839C84.155 24.1119 83.5382 24.8711 82.7307 25.376C81.9231 25.8809 80.9706 26.1027 80.0231 26.0067C77.2739 26.0067 76.029 25.0339 76.029 22.1154V1.36195C76.029 0.752314 75.0175 0.155651 74.1357 0.155651V0H83.0705V0.207535C82.8345 0.18199 82.5961 0.221698 82.3812 0.322331C82.1662 0.422965 81.983 0.580666 81.8515 0.778256C81.7557 0.93487 81.7021 1.11361 81.6959 1.29709Z" fill="white"/>
</g>
<defs>
<clipPath id="clip0_1181_1089">
<rect width="148" height="34.0487" fill="white"/>
</clipPath>
</defs>
</svg>
