<svg width="148" height="35" viewBox="0 0 148 35" fill="none" xmlns="http://www.w3.org/2000/svg">
<g clip-path="url(#clip0_759_3396)">
<path d="M35.2332 18.6133C34.948 18.0863 34.5852 17.6053 34.1568 17.1865C33.6075 16.6925 33.0076 16.2577 32.3673 15.8894C31.5806 15.4311 30.9581 15.0938 30.5 14.8776C30.0591 14.6571 29.3847 14.3588 28.49 13.9697C25.8964 12.7763 24.483 11.5182 24.457 10.2081C24.4407 9.92414 24.4908 9.64028 24.6033 9.37909C24.7159 9.1179 24.8878 8.88656 25.1054 8.70346C25.629 8.26589 26.269 7.99088 26.9468 7.91224V7.78253C25.2048 7.76807 23.498 8.2739 22.045 9.23527C21.4753 9.6283 21.0115 10.156 20.6948 10.7715C20.3781 11.387 20.2183 12.0712 20.2296 12.7634C20.2314 13.2421 20.3193 13.7166 20.4889 14.1642C20.7098 14.6618 21.0374 15.1046 21.4485 15.4613C21.9154 15.8894 22.3174 16.2525 22.6415 16.5249C23.1509 16.9272 23.6981 17.2791 24.2755 17.5756C25.0406 18.0036 25.5722 18.289 25.8446 18.4187L27.5304 19.2488C30.1887 20.5459 31.5244 21.7392 31.5244 22.8677C31.5244 24.1648 30.5 25.0598 28.4511 25.4619V25.6694C30.3441 25.6957 32.2042 25.1731 33.8067 24.1648C34.4176 23.7513 34.9131 23.189 35.2466 22.5309C35.5801 21.8728 35.7406 21.1405 35.713 20.4032C35.7129 19.7748 35.5474 19.1575 35.2332 18.6133Z" fill="#03030F"/>
<path d="M32.3025 13.7621C32.8155 13.7621 33.3169 13.61 33.7434 13.3249C34.1699 13.0399 34.5023 12.6347 34.6986 12.1607C34.8949 11.6866 34.9463 11.165 34.8462 10.6618C34.7461 10.1586 34.4991 9.69635 34.1364 9.33355C33.7737 8.97075 33.3116 8.72368 32.8085 8.62358C32.3054 8.52348 31.7839 8.57485 31.31 8.7712C30.8361 8.96755 30.4311 9.30005 30.1461 9.72667C29.8611 10.1533 29.709 10.6548 29.709 11.1679C29.709 11.8559 29.9822 12.5158 30.4686 13.0023C30.955 13.4888 31.6147 13.7621 32.3025 13.7621Z" fill="#03030F"/>
<path d="M23.8087 19.8975C23.2905 19.8847 22.7803 20.0276 22.344 20.3076C21.9077 20.5877 21.5653 20.9921 21.361 21.4686C21.1567 21.9452 21.0999 22.4721 21.1979 22.9813C21.2959 23.4905 21.5442 23.9586 21.9108 24.3253C22.2773 24.6919 22.7453 24.9403 23.2544 25.0383C23.7635 25.1364 24.2902 25.0795 24.7667 24.8752C25.2431 24.6709 25.6474 24.3284 25.9274 23.892C26.2074 23.4556 26.3502 22.9452 26.3374 22.4269C26.3374 21.756 26.071 21.1127 25.5968 20.6383C25.1225 20.164 24.4794 19.8975 23.8087 19.8975Z" fill="#03030F"/>
<path d="M52.182 18.6133C51.8926 18.0857 51.5254 17.6047 51.0928 17.1865C50.5434 16.6926 49.9436 16.2578 49.3032 15.8894C48.5122 15.4354 47.8897 15.0982 47.4488 14.8777C47.0079 14.6572 46.3207 14.3588 45.4259 13.9697C42.7934 12.8153 41.4967 11.5571 41.4059 10.2471C41.3838 9.96372 41.43 9.6792 41.5405 9.4174C41.6511 9.15559 41.8228 8.92413 42.0413 8.74243C42.5661 8.30679 43.2055 8.03203 43.8827 7.95121V7.78258C42.1576 7.77374 40.4691 8.27953 39.0328 9.23533C38.4527 9.6216 37.9781 10.1465 37.652 10.7626C37.326 11.3787 37.1587 12.0664 37.1655 12.7634C37.1673 13.2421 37.2552 13.7166 37.4248 14.1643C37.6509 14.6622 37.9828 15.1049 38.3974 15.4614C38.8642 15.8894 39.2533 16.2526 39.5775 16.525C40.0911 16.9212 40.6378 17.2727 41.2114 17.5756C41.9895 18.0037 42.5082 18.289 42.7805 18.4187L44.4663 19.2489C47.1247 20.546 48.4603 21.7393 48.4603 22.8678C48.4603 24.1649 47.4359 25.0599 45.3999 25.462V25.6695C47.2928 25.6942 49.1525 25.1718 50.7556 24.1649C51.3665 23.7513 51.862 23.189 52.1955 22.5309C52.529 21.8728 52.6895 21.1406 52.6618 20.4033C52.6618 19.7749 52.4963 19.1575 52.182 18.6133Z" fill="#03030F"/>
<path d="M49.2772 13.7623C49.7928 13.7752 50.3004 13.634 50.7354 13.3569C51.1703 13.0798 51.5128 12.6793 51.7191 12.2066C51.9254 11.7339 51.9861 11.2103 51.8934 10.7029C51.8008 10.1955 51.559 9.72721 51.199 9.35789C50.839 8.98857 50.3772 8.73498 49.8724 8.62952C49.3676 8.52405 48.8428 8.57149 48.3651 8.76579C47.8874 8.96009 47.4785 9.29242 47.1905 9.72032C46.9026 10.1482 46.7487 10.6523 46.7485 11.1681C46.7483 11.845 47.0127 12.4952 47.4851 12.9799C47.9575 13.4646 48.6007 13.7453 49.2772 13.7623Z" fill="#03030F"/>
<path d="M40.7446 19.8975C40.2289 19.8976 39.725 20.0515 39.2972 20.3396C38.8694 20.6276 38.5371 21.0366 38.3429 21.5145C38.1486 21.9923 38.1012 22.5172 38.2066 23.0221C38.3121 23.527 38.5656 23.989 38.9348 24.3491C39.3041 24.7092 39.7722 24.951 40.2795 25.0436C40.7868 25.1363 41.3102 25.0756 41.7828 24.8692C42.2555 24.6629 42.6559 24.3203 42.9329 23.8853C43.2099 23.4502 43.351 22.9424 43.3381 22.4268C43.3212 21.7501 43.0405 21.1068 42.5559 20.6342C42.0714 20.1616 41.4213 19.8972 40.7446 19.8975Z" fill="#03030F"/>
<path d="M120.275 24.1649C119.496 24.1666 118.727 23.9828 118.033 23.6287C117.338 23.2746 116.738 22.7604 116.281 22.1284C115.138 20.4777 114.581 18.4909 114.699 16.4861C114.6 14.279 114.84 12.0697 115.412 9.93576C115.537 9.4097 115.822 8.93565 116.229 8.57985C116.636 8.22405 117.144 8.00426 117.682 7.9512V7.78258C116.199 7.76193 114.736 8.12048 113.431 8.8242C112.126 9.52792 111.023 10.5535 110.225 11.8036C109.291 13.2315 108.811 14.9095 108.851 16.6158C108.801 17.8498 109.026 19.0795 109.508 20.2165C109.99 21.3535 110.718 22.3697 111.639 23.1921C113.389 24.7618 115.655 25.6341 118.006 25.6436C119.371 25.6284 120.723 25.3737 122 24.8912C123.3 24.4336 124.446 23.6201 125.307 22.5435V22.336C123.887 23.5017 122.112 24.147 120.275 24.1649Z" fill="#03030F"/>
<path d="M122.065 13.7623C122.58 13.7752 123.088 13.634 123.523 13.3569C123.958 13.0798 124.3 12.6793 124.507 12.2066C124.713 11.7339 124.774 11.2103 124.681 10.7029C124.588 10.1955 124.347 9.72721 123.987 9.35789C123.627 8.98857 123.165 8.73498 122.66 8.62952C122.155 8.52405 121.63 8.57149 121.153 8.76579C120.675 8.96009 120.266 9.29242 119.978 9.72032C119.69 10.1482 119.536 10.6523 119.536 11.1681C119.536 11.845 119.8 12.4952 120.273 12.9799C120.745 13.4646 121.388 13.7453 122.065 13.7623Z" fill="#03030F"/>
<path d="M101.148 22.4267C101.148 21.9136 101.3 21.4121 101.585 20.9855C101.87 20.5588 102.275 20.2263 102.749 20.03C103.223 19.8336 103.744 19.7823 104.247 19.8824C104.75 19.9825 105.213 20.2295 105.575 20.5923C105.938 20.9551 106.185 21.4174 106.285 21.9206C106.385 22.4238 106.334 22.9454 106.137 23.4195C105.941 23.8935 105.609 24.2986 105.182 24.5837C104.756 24.8687 104.254 25.0209 103.741 25.0209C103.398 25.0298 103.057 24.9688 102.738 24.8416C102.42 24.7144 102.13 24.5236 101.888 24.2809C101.645 24.0382 101.454 23.7487 101.327 23.4299C101.2 23.1111 101.139 22.7698 101.148 22.4267Z" fill="#03030F"/>
<path d="M95.429 8.08081V8.28835C95.9075 8.2609 96.3863 8.33578 96.8335 8.50801C97.2807 8.68023 97.6861 8.94583 98.0226 9.28711C98.6392 10.0076 98.9632 10.9334 98.9303 11.8813C98.8548 13.4884 98.481 15.0675 97.8281 16.5379L97.5298 17.1215C97.2056 17.7182 96.648 18.7559 96.3368 19.3136L92.0704 10.3767C91.9284 10.1623 91.8432 9.91528 91.8228 9.65889C91.8024 9.4025 91.8474 9.14514 91.9537 8.91095C92.0852 8.71336 92.2685 8.55566 92.4834 8.45503C92.6983 8.35439 92.9367 8.31468 93.1727 8.34023V8.08081H83.4858V8.28835C83.8866 8.27285 84.2826 8.38003 84.6209 8.59558C84.9592 8.81112 85.2237 9.12477 85.3791 9.49464L92.5762 23.7627C92.8972 24.2987 93.0435 24.9213 92.9947 25.5442C92.9459 26.1672 92.7044 26.7594 92.3038 27.2389L91.9926 27.6929C91.9294 27.8088 91.8601 27.9214 91.7851 28.0301L92.0186 28.2247L92.3687 27.628L93.5747 25.3451L94.4565 23.6848L96.5183 19.7936L98.4116 16.2914L101.757 9.98754C101.981 9.49166 102.308 9.04939 102.717 8.69044C103.103 8.44489 103.558 8.33111 104.014 8.36617V8.08081H95.429Z" fill="#03030F"/>
<path d="M87.3762 28.9771C86.8605 28.9772 86.3566 29.1311 85.9288 29.4192C85.501 29.7072 85.1687 30.1162 84.9745 30.594C84.7802 31.0719 84.7328 31.5968 84.8382 32.1017C84.9437 32.6066 85.1972 33.0686 85.5664 33.4287C85.9357 33.7888 86.4038 34.0306 86.9111 34.1232C87.4184 34.2159 87.9418 34.1552 88.4144 33.9488C88.887 33.7425 89.2874 33.3999 89.5645 32.9649C89.8415 32.5298 89.9826 32.022 89.9697 31.5064C89.9528 30.8297 89.6721 30.1864 89.1875 29.7138C88.703 29.2412 88.0529 28.9768 87.3762 28.9771Z" fill="#03030F"/>
<path d="M147.831 23.2569C147.3 24.2686 146.729 24.7615 146.236 24.7615C145.744 24.7615 145.238 24.3594 145.238 23.3477V15.2927V12.6985C145.238 9.10559 142.93 7.51017 140.051 7.51017C138.815 7.49528 137.601 7.84057 136.558 8.50392C135.515 9.16727 134.688 10.12 134.177 11.2458V1.29709C134.174 1.10598 134.224 0.917789 134.319 0.752314C134.451 0.554724 134.634 0.397023 134.849 0.296389C135.064 0.195756 135.302 0.156048 135.538 0.181593V0H126.565V0.207535C127.433 0.207535 128.458 0.804198 128.458 1.41383V23.3477C128.458 24.5151 127.602 25.0988 125.864 25.0988V25.3063H136.705V25.0988C134.994 25.0988 134.112 24.5151 134.112 23.3477V13.7622C134.112 11.3496 135.72 9.59849 137.367 9.59849C138.663 9.59849 139.584 10.7529 139.766 12.6856V22.1933C139.766 25.0339 140.972 25.9678 143.656 25.9678C144.578 26.0624 145.506 25.8474 146.292 25.3565C147.079 24.8657 147.68 24.127 148 23.2569H147.831Z" fill="#03030F"/>
<path d="M58.8344 13.7623C59.3499 13.7752 59.8575 13.634 60.2925 13.3569C60.7274 13.0798 61.0699 12.6793 61.2762 12.2066C61.4825 11.7339 61.5432 11.2103 61.4505 10.7029C61.3579 10.1955 61.1162 9.72721 60.7562 9.35789C60.3962 8.98857 59.9343 8.73498 59.4295 8.62952C58.9247 8.52405 58.4 8.57149 57.9223 8.76579C57.4446 8.96009 57.0356 9.29242 56.7477 9.72032C56.4597 10.1482 56.3058 10.6523 56.3057 11.1681C56.3055 11.845 56.5698 12.4952 57.0422 12.9799C57.5147 13.4646 58.1578 13.7453 58.8344 13.7623Z" fill="#03030F"/>
<path d="M73.7083 23.1271C73.1507 24.1777 72.5542 24.7095 72.0355 24.7095C71.5168 24.7095 71.05 24.2815 71.05 23.2698V14.7738C71.05 10.1951 68.7288 8.00298 62.9452 7.78247V8.00298C64.6569 8.23645 65.3183 9.61137 65.3183 11.3235V16.5119H61.7521C60.0618 16.4423 58.391 16.8952 56.9671 17.809C56.4015 18.1825 55.938 18.6913 55.6187 19.2892C55.2994 19.8872 55.1344 20.5554 55.1386 21.2333C55.102 21.8322 55.1994 22.4318 55.4237 22.9882C55.6481 23.5447 55.9937 24.0441 56.4354 24.4501C57.4286 25.288 58.7042 25.7149 60.0015 25.6434C61.0389 25.6192 62.0581 25.366 62.9862 24.9018C63.9143 24.4376 64.7283 23.774 65.3701 22.9585C65.6295 25.2154 66.8873 25.9937 69.3771 25.9937C70.3454 26.0935 71.3191 25.8652 72.1421 25.3454C72.9651 24.8256 73.5897 24.0444 73.9158 23.1271H73.7083ZM62.9581 23.8275C61.5058 23.8275 60.7925 22.712 60.7925 20.494C60.7409 19.4894 61.0802 18.5039 61.7392 17.7441C62.0913 17.3938 62.5139 17.1224 62.979 16.948C63.444 16.7735 63.9408 16.7 64.4365 16.7324H65.3183V22.0505C65.3043 22.2881 65.3043 22.5263 65.3183 22.7639C64.6828 23.3876 63.8462 23.7646 62.9581 23.8275Z" fill="#03030F"/>
<path d="M3.69593 13.7623C4.21145 13.7752 4.71911 13.634 5.15406 13.3569C5.589 13.0798 5.93149 12.6793 6.13777 12.2066C6.34405 11.7339 6.40475 11.2103 6.31212 10.7029C6.21949 10.1955 5.97774 9.72721 5.61774 9.35789C5.25775 8.98857 4.79585 8.73498 4.29107 8.62952C3.78628 8.52405 3.26152 8.57149 2.78383 8.76579C2.30613 8.96009 1.89719 9.29242 1.60924 9.72032C1.32128 10.1482 1.1674 10.6523 1.16724 11.1681C1.16702 11.845 1.43135 12.4952 1.9038 12.9799C2.37625 13.4646 3.01938 13.7453 3.69593 13.7623Z" fill="#03030F"/>
<path d="M18.5698 23.1271C18.0122 24.1777 17.4156 24.7095 16.884 24.7095C16.3523 24.7095 15.9114 24.2815 15.9114 23.2698V14.7738C15.9114 10.1951 13.6031 8.00298 7.78066 7.78247V8.00298C9.49239 8.23645 10.1537 9.61137 10.1537 11.3235V16.5119H6.61357C4.92321 16.4423 3.25244 16.8952 1.8285 17.809C1.26658 18.1801 0.80542 18.6847 0.486325 19.2778C0.167229 19.8709 0.000154663 20.5339 6.05416e-05 21.2074C-0.0472065 21.8074 0.0453016 22.4101 0.270312 22.9683C0.495323 23.5265 0.846703 24.0248 1.29683 24.4242C2.28469 25.2625 3.5565 25.6896 4.84997 25.6175C5.88954 25.5952 6.91126 25.3428 7.84175 24.8786C8.77223 24.4144 9.58837 23.7497 10.2316 22.9325C10.4779 25.1895 11.7488 25.9418 14.2645 25.9418C15.2292 26.041 16.1994 25.8155 17.0215 25.301C17.8436 24.7865 18.4706 24.0123 18.8032 23.1011L18.5698 23.1271ZM7.78066 23.8275C6.32828 23.8275 5.60209 22.712 5.60209 20.494C5.55046 19.4894 5.88973 18.5039 6.54873 17.7441C6.90428 17.3948 7.32933 17.1242 7.79626 16.9499C8.26318 16.7756 8.76155 16.7015 9.25898 16.7324H10.1408V22.0505V22.7639C9.50665 23.3895 8.66926 23.7669 7.78066 23.8275Z" fill="#03030F"/>
<path d="M81.6964 1.29709V23.3477C81.6964 24.3335 82.0076 24.7615 82.6301 24.7615C83.2525 24.7615 83.7193 24.2556 84.2769 23.218H84.4844C84.1555 24.1119 83.5387 24.8711 82.7312 25.376C81.9236 25.8809 80.971 26.1027 80.0236 26.0067C77.2744 26.0067 76.0295 25.0339 76.0295 22.1154V1.36195C76.0295 0.752314 75.018 0.155651 74.1362 0.155651V0H83.071V0.207535C82.835 0.18199 82.5966 0.221698 82.3817 0.322331C82.1667 0.422965 81.9835 0.580666 81.852 0.778256C81.7562 0.93487 81.7026 1.11361 81.6964 1.29709Z" fill="#03030F"/>
</g>
<defs>
<clipPath id="clip0_759_3396">
<rect width="148" height="34.0487" fill="white"/>
</clipPath>
</defs>
</svg>
