<svg width="1440" height="452" viewBox="0 0 1440 452" fill="none" xmlns="http://www.w3.org/2000/svg">
<g filter="url(#filter0_d_1576_1775)">
<path fill-rule="evenodd" clip-rule="evenodd" d="M1440 96H0V448H1440V96ZM680.157 145.162C680.585 145.58 680.948 146.06 681.233 146.587C681.547 147.13 681.713 147.747 681.713 148.374C681.741 149.11 681.58 149.841 681.247 150.499C680.913 151.156 680.418 151.717 679.807 152.13C678.204 153.137 676.344 153.659 674.451 153.633V153.426C676.5 153.024 677.524 152.13 677.524 150.835C677.524 149.708 676.189 148.517 673.53 147.221L671.845 146.392C671.572 146.263 671.041 145.978 670.275 145.55C669.698 145.254 669.151 144.903 668.642 144.501C668.317 144.229 667.915 143.867 667.449 143.439C667.037 143.083 666.71 142.641 666.489 142.144C666.319 141.697 666.231 141.223 666.23 140.745C666.218 140.054 666.378 139.371 666.695 138.756C667.012 138.142 667.475 137.615 668.045 137.222C669.498 136.262 671.205 135.757 672.947 135.771V135.901C672.269 135.979 671.629 136.254 671.105 136.691C670.888 136.874 670.716 137.105 670.603 137.366C670.491 137.627 670.441 137.91 670.457 138.194C670.483 139.502 671.896 140.758 674.49 141.95C675.385 142.338 676.059 142.636 676.5 142.856C676.958 143.072 677.581 143.409 678.367 143.867C679.008 144.235 679.607 144.669 680.157 145.162ZM678.302 141.742C678.815 141.742 679.317 141.591 679.743 141.306C680.17 141.021 680.502 140.617 680.699 140.143C680.895 139.67 680.946 139.149 680.846 138.647C680.746 138.144 680.499 137.683 680.136 137.32C679.774 136.958 679.312 136.711 678.808 136.611C678.305 136.511 677.784 136.563 677.31 136.759C676.836 136.955 676.431 137.287 676.146 137.713C675.861 138.139 675.709 138.64 675.709 139.152C675.709 139.839 675.982 140.498 676.469 140.984C676.955 141.47 677.615 141.742 678.302 141.742ZM668.344 148.278C668.78 147.999 669.29 147.856 669.809 147.869C670.479 147.869 671.122 148.135 671.597 148.609C672.071 149.082 672.337 149.725 672.337 150.395C672.35 150.912 672.207 151.422 671.927 151.858C671.647 152.293 671.243 152.635 670.767 152.84C670.29 153.044 669.763 153.1 669.254 153.002C668.745 152.905 668.277 152.657 667.911 152.29C667.544 151.924 667.296 151.457 667.198 150.948C667.1 150.44 667.157 149.914 667.361 149.438C667.565 148.962 667.908 148.558 668.344 148.278ZM698.182 146.587C697.893 146.06 697.525 145.579 697.093 145.162C696.543 144.669 695.943 144.235 695.303 143.867C694.512 143.413 693.89 143.077 693.449 142.856C693.016 142.64 692.347 142.35 691.477 141.972L691.426 141.95C688.793 140.797 687.497 139.541 687.406 138.232C687.384 137.949 687.43 137.665 687.54 137.404C687.651 137.142 687.823 136.911 688.041 136.73C688.566 136.295 689.205 136.021 689.883 135.94V135.771C688.158 135.763 686.469 136.268 685.033 137.222C684.453 137.608 683.978 138.132 683.652 138.747C683.326 139.362 683.159 140.049 683.165 140.745C683.167 141.223 683.255 141.697 683.425 142.144C683.651 142.641 683.983 143.083 684.397 143.439L684.636 143.658L684.639 143.661C685 143.993 685.311 144.278 685.577 144.501C686.091 144.897 686.638 145.248 687.211 145.55L687.214 145.552C687.991 145.979 688.508 146.263 688.78 146.392L690.466 147.221C693.125 148.517 694.46 149.708 694.46 150.835C694.46 152.13 693.436 153.024 691.4 153.426V153.633C693.293 153.657 695.152 153.136 696.755 152.13C697.366 151.717 697.862 151.156 698.195 150.499C698.529 149.841 698.689 149.11 698.662 148.374C698.662 147.747 698.496 147.13 698.182 146.587ZM696.735 141.338C696.3 141.614 695.793 141.755 695.277 141.742C694.601 141.726 693.957 141.445 693.485 140.961C693.013 140.477 692.748 139.828 692.748 139.152C692.749 138.637 692.902 138.134 693.19 137.706C693.478 137.279 693.887 136.947 694.365 136.753C694.843 136.559 695.367 136.512 695.872 136.617C696.377 136.722 696.839 136.976 697.199 137.344C697.559 137.713 697.801 138.181 697.893 138.687C697.986 139.194 697.925 139.717 697.719 140.189C697.513 140.661 697.17 141.061 696.735 141.338ZM686.744 147.869C686.229 147.869 685.725 148.023 685.297 148.31C684.869 148.598 684.537 149.007 684.343 149.484C684.148 149.961 684.101 150.485 684.206 150.989C684.312 151.493 684.565 151.955 684.935 152.314C685.304 152.674 685.772 152.915 686.279 153.008C686.787 153.1 687.31 153.04 687.783 152.834C688.255 152.628 688.656 152.286 688.933 151.851C689.21 151.417 689.351 150.91 689.338 150.395C689.321 149.719 689.04 149.077 688.556 148.605C688.071 148.133 687.421 147.869 686.744 147.869ZM764.032 151.595C764.727 151.948 765.496 152.132 766.275 152.13C768.112 152.112 769.887 151.468 771.307 150.304V150.511C770.446 151.586 769.3 152.399 768 152.856C766.723 153.337 765.371 153.592 764.006 153.607C761.655 153.597 759.389 152.726 757.639 151.159C756.717 150.338 755.99 149.323 755.508 148.188C755.026 147.052 754.801 145.824 754.851 144.592C754.811 142.888 755.291 141.213 756.225 139.787C757.023 138.538 758.126 137.514 759.431 136.812C760.736 136.109 762.199 135.751 763.682 135.771V135.94C763.144 135.993 762.636 136.212 762.229 136.568C761.822 136.923 761.537 137.396 761.412 137.922C760.84 140.052 760.6 142.259 760.699 144.462C760.58 146.464 761.138 148.448 762.281 150.097C762.738 150.728 763.338 151.241 764.032 151.595ZM768.065 141.742C768.58 141.755 769.088 141.614 769.523 141.338C769.958 141.061 770.3 140.661 770.507 140.189C770.713 139.717 770.773 139.194 770.681 138.687C770.588 138.181 770.346 137.713 769.986 137.344C769.626 136.976 769.165 136.722 768.66 136.617C768.155 136.512 767.63 136.559 767.153 136.753C766.675 136.947 766.266 137.279 765.978 137.706C765.69 138.134 765.536 138.637 765.536 139.152C765.536 139.828 765.8 140.477 766.273 140.961C766.745 141.445 767.388 141.726 768.065 141.742ZM747.585 148.955C747.3 149.381 747.148 149.882 747.148 150.395C747.139 150.737 747.2 151.078 747.327 151.396C747.454 151.715 747.645 152.004 747.888 152.246C748.13 152.489 748.42 152.679 748.738 152.806C749.057 152.933 749.398 152.994 749.741 152.985C750.254 152.985 750.756 152.833 751.182 152.549C751.609 152.264 751.941 151.859 752.137 151.386C752.334 150.913 752.385 150.392 752.285 149.889C752.185 149.387 751.938 148.925 751.575 148.563C751.213 148.201 750.75 147.954 750.247 147.854C749.744 147.754 749.223 147.805 748.749 148.001C748.275 148.197 747.87 148.529 747.585 148.955ZM741.429 136.069V136.277C741.908 136.249 742.386 136.324 742.833 136.496C743.281 136.668 743.686 136.933 744.023 137.274C744.639 137.993 744.963 138.918 744.93 139.864C744.855 141.469 744.481 143.046 743.828 144.514L743.53 145.097L743.432 145.278L743.339 145.448L743.29 145.538L743.232 145.647L743.212 145.684L743.208 145.69C742.909 146.242 742.56 146.887 742.337 147.286L738.07 138.362C737.928 138.148 737.843 137.901 737.823 137.645C737.802 137.389 737.847 137.132 737.954 136.898C738.085 136.701 738.268 136.544 738.483 136.443C738.698 136.343 738.937 136.303 739.173 136.328V136.069H729.486V136.277C729.887 136.261 730.283 136.368 730.621 136.583C730.959 136.799 731.224 137.112 731.379 137.481L738.576 151.729C738.897 152.264 739.043 152.886 738.995 153.508C738.946 154.13 738.704 154.721 738.304 155.2L737.993 155.653C737.929 155.769 737.86 155.882 737.785 155.99L738.019 156.184L738.369 155.589L739.575 153.309L740.456 151.651L742.518 147.765L744.412 144.268L747.757 137.973C747.981 137.478 748.308 137.037 748.717 136.678C749.103 136.433 749.558 136.319 750.014 136.354V136.069H741.429ZM731.929 157.377C732.357 157.089 732.86 156.936 733.376 156.936C734.053 156.935 734.703 157.199 735.188 157.671C735.672 158.143 735.953 158.786 735.97 159.461C735.983 159.976 735.841 160.483 735.564 160.918C735.287 161.352 734.887 161.694 734.414 161.9C733.942 162.106 733.418 162.167 732.911 162.074C732.404 161.982 731.936 161.74 731.566 161.381C731.197 161.021 730.944 160.56 730.838 160.056C730.733 159.552 730.78 159.027 730.974 158.55C731.169 158.073 731.501 157.665 731.929 157.377ZM793.831 151.224C793.3 152.234 792.729 152.726 792.236 152.726C791.744 152.726 791.238 152.325 791.238 151.314V143.271V140.68C791.238 137.093 788.93 135.499 786.051 135.499C784.815 135.485 783.601 135.829 782.558 136.492C781.515 137.154 780.687 138.106 780.176 139.23V129.295C780.174 129.104 780.224 128.916 780.319 128.751C780.451 128.554 780.634 128.396 780.849 128.296C781.064 128.195 781.302 128.156 781.538 128.181V128H772.564V128.207C773.433 128.207 774.458 128.803 774.458 129.412V151.314C774.458 152.48 773.602 153.063 771.864 153.063V153.27H782.705V153.063C780.993 153.063 780.112 152.48 780.112 151.314V141.742C780.112 139.333 781.72 137.585 783.367 137.585C784.663 137.585 785.584 138.738 785.766 140.667V150.162C785.766 152.998 786.971 153.931 789.656 153.931C790.578 154.025 791.506 153.81 792.292 153.32C793.079 152.83 793.68 152.092 794 151.224H793.831ZM706.292 141.338C705.857 141.614 705.35 141.755 704.834 141.742C704.158 141.726 703.515 141.445 703.042 140.961C702.57 140.477 702.305 139.828 702.306 139.152C702.306 138.637 702.46 138.134 702.748 137.706C703.036 137.279 703.445 136.947 703.922 136.753C704.4 136.559 704.925 136.512 705.429 136.617C705.934 136.722 706.396 136.976 706.756 137.344C707.116 137.713 707.358 138.181 707.451 138.687C707.543 139.194 707.482 139.717 707.276 140.189C707.07 140.661 706.727 141.061 706.292 141.338ZM719.708 151.094C719.151 152.143 718.554 152.674 718.035 152.674C717.517 152.674 717.05 152.247 717.05 151.237V142.753C717.05 138.181 714.729 135.992 708.945 135.771V135.992C710.657 136.225 711.318 137.598 711.318 139.307V144.488H707.752C706.062 144.419 704.391 144.871 702.967 145.784C702.401 146.157 701.938 146.665 701.619 147.262C701.299 147.859 701.134 148.526 701.139 149.203C701.102 149.801 701.199 150.4 701.424 150.955C701.648 151.511 701.994 152.01 702.435 152.415C703.428 153.252 704.704 153.678 706.001 153.607C707.039 153.583 708.058 153.33 708.986 152.866C709.914 152.403 710.728 151.74 711.37 150.926C711.629 153.179 712.887 153.957 715.377 153.957C716.345 154.056 717.319 153.828 718.142 153.309C718.965 152.79 719.59 152.01 719.916 151.094H719.708ZM708.958 151.794C707.506 151.794 706.792 150.68 706.792 148.465C706.741 147.462 707.08 146.478 707.739 145.719C708.091 145.369 708.514 145.098 708.979 144.924C709.444 144.75 709.941 144.676 710.436 144.709H711.318V150.019C711.304 150.256 711.304 150.494 711.318 150.731C710.683 151.354 709.846 151.731 708.958 151.794ZM651.154 141.338C650.719 141.614 650.211 141.755 649.696 141.742C649.019 141.726 648.376 141.445 647.904 140.961C647.431 140.477 647.167 139.828 647.167 139.152C647.167 138.637 647.321 138.134 647.609 137.706C647.897 137.279 648.306 136.947 648.784 136.753C649.261 136.559 649.786 136.512 650.291 136.617C650.796 136.722 651.258 136.976 651.618 137.344C651.978 137.713 652.219 138.181 652.312 138.687C652.405 139.194 652.344 139.717 652.138 140.189C651.931 140.661 651.589 141.061 651.154 141.338ZM664.57 151.094C664.012 152.143 663.416 152.674 662.884 152.674C662.352 152.674 661.911 152.247 661.911 151.237V142.753C661.911 138.181 659.603 135.992 653.781 135.771V135.992C655.492 136.225 656.154 137.598 656.154 139.307V144.488H652.614C650.923 144.419 649.252 144.871 647.828 145.784C647.267 146.154 646.805 146.658 646.486 147.25C646.167 147.843 646 148.505 646 149.177C645.953 149.776 646.045 150.378 646.27 150.936C646.495 151.493 646.847 151.991 647.297 152.389C648.285 153.226 649.556 153.653 650.85 153.581C651.889 153.559 652.911 153.307 653.842 152.843C654.772 152.38 655.588 151.716 656.232 150.9C656.478 153.154 657.749 153.905 660.264 153.905C661.229 154.004 662.199 153.779 663.021 153.265C663.844 152.751 664.471 151.978 664.803 151.068L664.57 151.094ZM653.781 151.794C652.328 151.794 651.602 150.68 651.602 148.465C651.55 147.462 651.89 146.478 652.549 145.719C652.904 145.37 653.329 145.1 653.796 144.926C654.263 144.752 654.761 144.678 655.259 144.709H656.141V150.019V150.731C655.507 151.356 654.669 151.733 653.781 151.794ZM727.696 151.314V129.295C727.703 129.112 727.756 128.934 727.852 128.777C727.983 128.58 728.167 128.422 728.382 128.322C728.596 128.221 728.835 128.182 729.071 128.207V128H720.136V128.155C721.018 128.155 722.029 128.751 722.029 129.36V150.084C722.029 152.998 723.274 153.97 726.023 153.97C726.971 154.065 727.924 153.844 728.731 153.34C729.539 152.836 730.155 152.077 730.484 151.185H730.277C729.719 152.221 729.252 152.726 728.63 152.726C728.008 152.726 727.696 152.299 727.696 151.314Z" fill="white"/>
</g>
<defs>
<filter id="filter0_d_1576_1775" x="-50" y="0" width="1540" height="452" filterUnits="userSpaceOnUse" color-interpolation-filters="sRGB">
<feFlood flood-opacity="0" result="BackgroundImageFix"/>
<feColorMatrix in="SourceAlpha" type="matrix" values="0 0 0 0 0 0 0 0 0 0 0 0 0 0 0 0 0 0 127 0" result="hardAlpha"/>
<feOffset dy="-46"/>
<feGaussianBlur stdDeviation="25"/>
<feComposite in2="hardAlpha" operator="out"/>
<feColorMatrix type="matrix" values="0 0 0 0 0 0 0 0 0 0 0 0 0 0 0 0 0 0 0.08 0"/>
<feBlend mode="normal" in2="BackgroundImageFix" result="effect1_dropShadow_1576_1775"/>
<feBlend mode="normal" in="SourceGraphic" in2="effect1_dropShadow_1576_1775" result="shape"/>
</filter>
</defs>
</svg>
